PathFileType	4	(X/Y/Z)	C:/Users/opensim2020/Desktop/walking_exp_matlab/subject03_walking05_straight_04.trc																																																																																																																																					
DataRate	CameraRate	NumFrames	NumMarkers	Units	OrigDataRate	OrigDataStartFrame	OrigNumFrames																																																																																																																																	
100	100	6	45	mm	100	3038	294																																																																																																																																	
Frame#	Time	LFHD			RFHD			LBHD			RBHD			C7			T10			CLAV			STRN			RBAK			LSHO			LUPA			LELB			LFRM			LWRA			LWRB			LFIN			RSHO			RUPA			RELB			RFRM			RWRA			RWRB			RFIN			LASI			RASI			LPSI			RPSI			LTHI			LKNE			LTIB			LANK			LHEE			LTOE			RTHI			RKNE			RTIB			RANK			RHEE			RTOE			*39			*40			*41			*42			*43			*44		
		X1	Y1	Z1	X2	Y2	Z2	X3	Y3	Z3	X4	Y4	Z4	X5	Y5	Z5	X6	Y6	Z6	X7	Y7	Z7	X8	Y8	Z8	X9	Y9	Z9	X10	Y10	Z10	X11	Y11	Z11	X12	Y12	Z12	X13	Y13	Z13	X14	Y14	Z14	X15	Y15	Z15	X16	Y16	Z16	X17	Y17	Z17	X18	Y18	Z18	X19	Y19	Z19	X20	Y20	Z20	X21	Y21	Z21	X22	Y22	Z22	X23	Y23	Z23	X24	Y24	Z24	X25	Y25	Z25	X26	Y26	Z26	X27	Y27	Z27	X28	Y28	Z28	X29	Y29	Z29	X30	Y30	Z30	X31	Y31	Z31	X32	Y32	Z32	X33	Y33	Z33	X34	Y34	Z34	X35	Y35	Z35	X36	Y36	Z36	X37	Y37	Z37	X38	Y38	Z38	X39	Y39	Z39	X40	Y40	Z40	X41	Y41	Z41	X42	Y42	Z42	X43	Y43	Z43	X44	Y44	Z44	X45	Y45	Z45
																																																																																																																																								
184	1.83	134.6983	1614.57202	-1491.69897	120.48429	1622.87085	-1359.52161	8.88349	1564.79309	-1497.80725	-0.72891	1573.09448	-1367.26135	-19.67272	1408.59314	-1435.22107	-42.53686	1093.78589	-1438.23901	102.99393	1334.65723	-1429.76965	152.26276	1172.05225	-1438.75867	-72.05157	1229.14172	-1345.69702	64.84383	1373.67529	-1586.24805	86.6233	1180.92224	-1658.82166	123.12137	1064.31628	-1668.19165	205.68575	968.07745	-1652.05188	280.71832	885.44501	-1604.58435	262.28394	869.4361	-1654.64075	324.64551	818.34967	-1636.7063	50.53167	1354.1123	-1271.31543	36.41827	1127.9519	-1208.97583	41.72628	1014.09717	-1201.80481	39.65114	876.91626	-1203.29443	53.79777	778.61694	-1242.14734	24.36511	777.43622	-1195.87292	31.60614	702.53845	-1211.21216	122.16378	927.7265	-1558.36963	133.2977	942.26941	-1319.74438	-36.44847	953.32587	-1499.98071	-30.12987	965.88348	-1352.2605	25.56847	629.5387	-1593.90881	-7.5191	452.42639	-1567.72156	-158.72995	317.00006	-1559.78687	-294.15637	159.52524	-1512.57629	-342.45871	162.51968	-1472.7135	-213.54945	33.26148	-1475.25134	123.57671	648.56311	-1275.22473	176.00795	476.17471	-1316.9823	168.88072	286.20721	-1313.5719	189.86223	71.7627	-1362.50439	148.25327	39.36495	-1414.5719	333.19183	38.25851	-1380.2063	44.66706	1674.60388	-1452.00928	NaN	NaN	NaN	NaN	NaN	NaN	NaN	NaN	NaN	NaN	NaN	NaN	NaN	NaN	NaN
185	1.84	146.10646	1615.9032	-1490.86841	132.03635	1623.99695	-1358.71631	19.73664	1567.48218	-1497.03687	10.32909	1575.55798	-1366.49707	-9.54027	1410.55359	-1434.66577	-31.53799	1095.50659	-1437.62878	113.63953	1336.59521	-1429.22803	163.41873	1174.20325	-1438.42932	-60.73464	1230.87463	-1344.61536	75.10046	1376.09973	-1585.33887	95.94179	1183.16785	-1657.40015	130.62369	1065.79321	-1666.19092	211.52603	967.68347	-1650.91199	284.70752	883.07623	-1603.91418	265.82965	867.875	-1654.15747	326.58102	814.41302	-1636.05005	61.32189	1356.3208	-1270.84839	48.29808	1130.32703	-1208.03979	54.24762	1016.56726	-1200.85229	53.22757	879.38245	-1202.18713	68.03063	781.14142	-1241.05371	38.75884	779.79572	-1194.8208	45.81781	704.89648	-1210.21118	133.52087	929.59418	-1556.89404	143.86319	944.22443	-1319.1134	-25.04816	955.10175	-1499.04016	-18.61593	968.09967	-1351.43335	41.03192	629.53851	-1594.41858	11.82389	451.78366	-1569.47131	-141.78741	319.69675	-1560.31726	-280.61563	165.60452	-1513.27539	-327.93542	172.90634	-1472.53284	-212.20917	33.0037	-1474.64795	131.79926	649.76733	-1274.86401	180.70715	476.53329	-1316.06055	171.49948	286.43143	-1312.88074	190.11731	71.77373	-1362.56799	148.31229	39.39417	-1414.50317	333.40442	38.07885	-1380.33337	NaN	NaN	NaN	NaN	NaN	NaN	NaN	NaN	NaN	NaN	NaN	NaN	NaN	NaN	NaN	NaN	NaN	NaN
186	1.85	157.40407	1616.92542	-1490.05237	143.41179	1624.68311	-1357.82788	30.45639	1569.89929	-1496.68579	21.27514	1577.62329	-1365.78723	0.9172	1411.56885	-1433.63977	-20.72927	1096.97656	-1436.59546	124.2188	1338.19263	-1428.83203	174.40034	1176.06702	-1438.14673	-49.51174	1232.39697	-1343.65308	85.08243	1378.22168	-1584.547	105.07733	1185.14478	-1656.04724	137.8027	1067.04651	-1664.33264	216.61778	967.40607	-1649.98877	288.70624	880.59851	-1603.56506	269.20993	866.17816	-1653.90674	328.15161	810.12744	-1635.53503	72.12673	1358.3031	-1270.4762	60.18647	1132.55591	-1207.05908	66.83114	1018.86823	-1199.78845	66.70951	881.72852	-1200.92871	82.67839	783.58527	-1239.81995	53.38786	782.01068	-1193.58813	60.66729	706.9173	-1209.07605	144.36638	931.26855	-1555.78894	155.07855	946.11249	-1317.86804	-14.17655	956.82013	-1498.01428	-7.18306	970.03107	-1350.41833	56.46958	629.27765	-1594.78674	31.31214	450.98187	-1571.00366	-124.09795	321.97592	-1560.46985	-265.48264	171.16217	-1514.4231	-312.4671	183.46907	-1474.07471	-208.52344	35.48027	-1474.61365	139.44197	650.58844	-1274.85828	185.56169	476.64801	-1315.3833	174.46515	286.63455	-1312.48413	190.32149	71.81203	-1362.71936	148.28452	39.46343	-1414.53149	333.5759	37.94519	-1380.6377	NaN	NaN	NaN	NaN	NaN	NaN	NaN	NaN	NaN	NaN	NaN	NaN	NaN	NaN	NaN	NaN	NaN	NaN
187	1.86	168.61369	1617.76733	-1489.2998	154.64362	1625.22534	-1356.98438	41.28373	1571.8938	-1496.08862	32.14653	1579.23816	-1365.21973	10.95838	1412.91943	-1433.16138	-9.96471	1098.09546	-1435.44495	134.7361	1339.49414	-1428.5509	185.17462	1177.52466	-1437.96008	-38.33866	1233.59021	-1342.54639	95.00538	1379.89868	-1583.83203	114.22223	1186.76038	-1654.95178	144.92142	1067.94092	-1662.69177	222.00458	966.61462	-1649.17078	292.72501	877.9964	-1603.46252	272.5643	864.27069	-1653.84802	329.54105	805.53394	-1635.23218	83.09064	1359.98193	-1270.23413	72.07466	1134.45044	-1205.9209	79.34644	1020.89734	-1198.52173	80.50095	883.88147	-1199.68835	97.52474	785.80286	-1238.52747	68.22872	783.88971	-1192.28809	76.00629	708.78857	-1207.92529	155.35338	933.04279	-1554.0647	165.78264	947.1828	-1317.00293	-3.62978	957.98621	-1496.81213	3.94767	971.48792	-1349.25427	71.76105	628.88171	-1595.08044	51.12368	449.97028	-1572.22107	-105.42012	323.96646	-1561.34253	-250.40466	177.27885	-1515.56482	-296.50662	193.29443	-1475.63843	-200.99335	39.54274	-1475.7832	146.93439	651.1109	-1274.79773	191.23175	476.53293	-1314.86804	177.69803	286.71799	-1312.22913	190.59952	71.77312	-1362.84717	147.96025	39.50069	-1414.38611	333.73172	37.82062	-1380.92505	NaN	NaN	NaN	NaN	NaN	NaN	NaN	NaN	NaN	NaN	NaN	NaN	NaN	NaN	NaN	NaN	NaN	NaN
188	1.87	179.70412	1618.52271	-1488.64063	165.87534	1625.65759	-1356.3103	52.05517	1573.53442	-1495.56873	43.00105	1580.59094	-1364.63879	21.14935	1413.68042	-1432.65344	0.64626	1098.95557	-1434.19153	144.98442	1340.4425	-1428.2146	195.71761	1178.67017	-1437.81616	-27.33552	1234.58044	-1341.41162	104.86906	1381.16675	-1583.33972	123.12989	1187.85266	-1653.99084	152.00008	1068.41272	-1661.3009	227.58295	965.51929	-1648.61035	296.68195	874.98676	-1603.58179	275.90494	862.0495	-1653.97974	330.61716	800.54108	-1635.12891	94.07091	1361.33374	-1269.98364	83.92426	1136.06885	-1204.75073	91.91584	1022.58191	-1197.11926	94.69473	885.63892	-1198.2843	112.72968	787.70697	-1237.16016	83.41449	785.50073	-1190.99963	91.70002	710.38623	-1206.75903	165.30409	934.06665	-1553.54041	176.50618	947.73096	-1316.21912	6.43999	958.88501	-1495.60535	14.6977	972.57593	-1347.99524	86.87749	628.39899	-1595.32324	71.32575	449.05499	-1573.12634	-85.96809	325.35672	-1562.78735	-235.20456	183.99429	-1515.73621	-280.62543	201.60701	-1475.40979	-189.4639	44.65918	-1479.26453	154.30682	651.43921	-1274.72974	196.74677	476.26093	-1314.57239	181.2691	286.88361	-1311.84619	190.86951	71.73423	-1362.86401	147.97813	39.55521	-1414.34692	333.87497	37.69171	-1381.21533	NaN	NaN	NaN	NaN	NaN	NaN	NaN	NaN	NaN	NaN	NaN	NaN	NaN	NaN	NaN	NaN	NaN	NaN
189	1.88	190.67482	1619.22546	-1488.07373	176.89458	1626.05701	-1355.68359	62.75492	1574.98792	-1495.10437	53.82315	1581.72571	-1364.15771	31.53731	1414.20386	-1431.9032	11.16752	1099.56042	-1432.81226	155.13345	1341.26819	-1428.09363	206.02586	1179.54138	-1437.71606	-16.48905	1235.21277	-1340.2749	114.38286	1382.01733	-1583.11475	131.83504	1188.34619	-1653.22314	159.0909	1068.37817	-1660.18604	232.87651	963.94611	-1648.1676	300.65961	871.61096	-1603.89404	279.07748	859.37	-1654.22485	331.45755	795.30914	-1635.29321	105.05627	1362.28101	-1269.68286	95.89242	1137.34399	-1203.4873	104.58678	1023.94604	-1195.55896	108.96664	886.94232	-1196.83667	128.13367	789.34503	-1235.87158	98.84367	786.75476	-1189.74707	107.88528	711.76013	-1205.55029	174.92026	934.88751	-1553.0752	187.11102	947.76959	-1315.53845	16.30009	959.19128	-1494.36426	25.20053	973.3067	-1346.68347	101.76318	627.99512	-1595.51965	91.8526	448.19562	-1574.00024	-66.26072	326.89532	-1563.88855	-219.07739	190.87541	-1515.26135	-264.46378	208.25877	-1473.87097	-174.74588	49.62037	-1482.94019	161.93155	651.95807	-1273.92371	202.02562	476.00763	-1314.08167	184.69858	286.94424	-1311.46606	191.00363	71.73732	-1362.88892	147.94698	39.54128	-1414.22375	333.94119	37.61249	-1381.39673	NaN	NaN	NaN	NaN	NaN	NaN	NaN	NaN	NaN	NaN	NaN	NaN	NaN	NaN	NaN	NaN	NaN	NaN
